<svg width="115" height="98" fill="none" xmlns="http://www.w3.org/2000/svg"><path d="M0 0h115v98H0V0z" fill="#003299"/><path d="M65.685 40.35H33.977v6.337h31.708V40.35zm0 10.998H33.977v6.337h31.708v-6.337zm4.47-15.492l-4.48 4.48 21.84 21.842 4.481-4.481-21.841-21.841z" fill="#fff"/><path d="M87.52 35.867L65.677 57.708l4.48 4.48L92 40.349l-4.48-4.481z" fill="#fff"/><path d="M59.332 78.414c-16.21 0-29.395-13.185-29.395-29.396 0-16.21 13.185-29.395 29.395-29.395 9.668 0 18.563 4.654 24.077 12.523l-4.571 4.57C74.58 29.98 67.289 25.96 59.332 25.96c-12.713 0-23.058 10.345-23.058 23.058 0 12.714 10.345 23.059 23.058 23.059 7.957 0 15.248-4.02 19.506-10.757l4.57 4.57C77.895 73.756 69 78.414 59.333 78.414z" fill="#fff"/><path d="M59.11 15.097l-2 1.05.385-2.226-1.616-1.572 2.233-.325L59.11 10l.998 2.024 2.234.325-1.616 1.572.38 2.226-1.996-1.05zm-19.941 6.48L38.17 23.6l-.998-2.023-2.234-.325 1.616-1.576-.38-2.226 1.996 1.05 2-1.05-.384 2.226 1.616 1.576-2.234.325zM26.848 38.536l.38 2.226-1.996-1.05-1.996 1.05.38-2.226L22 36.96l2.234-.325.998-2.024.998 2.024 2.234.325-1.616 1.576zm0 20.964l1.616 1.576-2.234.325-.998 2.024-.998-2.024L22 61.076l1.616-1.576-.38-2.222 1.996 1.05 1.996-1.05-.38 2.222zm12.321 16.962l2.234.325-1.616 1.576.384 2.222-2-1.05-1.996 1.05.38-2.222-1.616-1.576 2.234-.325.998-2.023.998 2.023zm19.941 6.48l1.997-1.053-.38 2.226 1.615 1.576-2.233.325-.999 2.023-.998-2.023-2.233-.325 1.616-1.576-.385-2.226 2 1.053zm19.938-6.48l.998-2.023 1.002 2.023 2.234.325-1.62 1.576.384 2.222-2-1.05-1.996 1.05.38-2.222-1.616-1.576 2.234-.325zm0-54.885l-2.234-.325 1.616-1.576-.38-2.226 1.996 1.05 2-1.05-.384 2.226 1.62 1.576-2.234.325-1.002 2.023-.998-2.023z" fill="#FFC709"/></svg>